<svg xmlns="http://www.w3.org/2000/svg" fill="none" class="icon icon-cart icon-cart-custom" viewBox="0 0 100 100">
  <path fill="currentColor" d="m7.0003 10c-1.6569 0-3 1.3432-3 3s1.3432 3 3 3h11.968c4.9652 12.298 9.8559 24.618 14.782 36.938l-4.5312 10.906c-0.3796 0.9092-0.2728 2.0058 0.2751 2.8246 0.5478 0.819 1.5208 1.3359 2.5062 1.332h50c1.585 0.0221 3.0427-1.415 3.0427-3s-1.4577-3.0221-3.0427-3h-45.5l2.5938-6.1875 48.156-3.8438c1.2604-0.099 2.4013-1.0811 2.6875-2.3125l6-26c0.3923-1.751-1.143-3.6621-2.9375-3.6562h-65.968l-3.25-8.125c-0.445-1.1-1.595-1.875-2.781-1.875zm22.438 16h59.781l-4.6562 20.188-45.594 3.625zm12.562 44c-5.4873 0-10 4.5127-10 10s4.5127 10 10 10 10-4.5127 10-10-4.5127-10-10-10zm30 0c-5.4873 0-10 4.5127-10 10s4.5127 10 10 10 10-4.5127 10-10-4.5127-10-10-10zm-30 6c2.2448 0 4 1.7552 4 4s-1.7552 4-4 4c-2.2448 0-4-1.7556-4-4s1.7552-4 4-4zm30 0c2.2445 0 4 1.7555 4 4s-1.7555 4-4 4c-2.2448 0-4-1.7552-4-4s1.7552-4 4-4z" fill-rule="evenodd"/>
</svg>
