<?xml version="1.0" encoding="UTF-8"?>
<svg width="1200pt" height="1200pt" version="1.1" viewBox="0 0 1200 1200" xmlns="http://www.w3.org/2000/svg">
 <path d="m84.004 120c-19.883 0-36 16.117-36 36s16.117 36 36 36h143.62c59.582 147.57 118.27 295.41 177.38 443.25l-54.375 130.88c-4.5547 10.91-3.2734 24.07 3.3008 33.895 6.5742 9.8281 18.25 16.031 30.074 15.98h600c19.02 0.26562 36.512-16.98 36.512-36s-17.492-36.27-36.512-36h-546l31.125-74.25 577.88-46.125c15.125-1.1875 28.816-12.973 32.25-27.75l72-312c4.707-21.016-13.715-43.945-35.25-43.875h-791.62l-39-97.5c-5.3398-13.199-19.137-22.5-33.375-22.5zm269.25 192h717.38l-55.875 242.25-547.12 43.5zm150.75 528c-65.848 0-120 54.152-120 120s54.152 120 120 120 120-54.152 120-120-54.152-120-120-120zm360 0c-65.848 0-120 54.152-120 120s54.152 120 120 120 120-54.152 120-120-54.152-120-120-120zm-360 72c26.938 0 48 21.062 48 48s-21.062 48-48 48c-26.934 0-48-21.066-48-48s21.066-48 48-48zm360 0c26.934 0 48 21.066 48 48s-21.066 48-48 48c-26.938 0-48-21.062-48-48s21.062-48 48-48z"/>
</svg>