<?xml version="1.0" encoding="UTF-8"?>
<svg width="700pt" height="700pt" version="1.1" viewBox="0 0 700 700" xmlns="http://www.w3.org/2000/svg">
 <path d="m350 168c-46.227 0-84 37.773-84 84s37.773 84 84 84 84-37.773 84-84-37.773-84-84-84zm0 28c31.094 0 56 24.906 56 56s-24.906 56-56 56-56-24.906-56-56 24.906-56 56-56zm0 161c-42.766 0-81.602 9.0859-110.91 25.594-29.301 16.508-50.094 41.938-50.094 72.406v63c0 7.7305 6.2695 14 14 14h294c7.7305 0 14-6.2695 14-14v-63c0-30.469-20.789-55.898-50.094-72.406s-68.141-25.594-110.91-25.594zm0 28c38.672 0 73.289 8.6641 97.125 22.094s35.875 30.117 35.875 47.906v49h-266v-49c0-17.789 12.039-34.477 35.875-47.906 23.836-13.426 58.453-22.094 97.125-22.094z"/>
</svg>
